<svg width="81" height="80" viewBox="0 0 81 80" fill="none" xmlns="http://www.w3.org/2000/svg">
<path d="M68.9999 24.2592L40.6666 39.9999M40.6666 39.9999L12.3332 24.2592M40.6666 39.9999L40.6667 71.6667M70.6667 53.5285V26.4715C70.6667 25.3294 70.6667 24.7583 70.4984 24.249C70.3495 23.7984 70.1062 23.3848 69.7846 23.0358C69.4211 22.6413 68.9219 22.364 67.9234 21.8093L43.2568 8.10562C42.3114 7.58043 41.8388 7.31783 41.3382 7.21488C40.8951 7.12377 40.4382 7.12377 39.9952 7.21488C39.4946 7.31783 39.0219 7.58043 38.0766 8.10563L13.4099 21.8093C12.4115 22.364 11.9123 22.6413 11.5488 23.0358C11.2272 23.3848 10.9838 23.7984 10.835 24.249C10.6667 24.7583 10.6667 25.3294 10.6667 26.4715V53.5285C10.6667 54.6707 10.6667 55.2417 10.835 55.7511C10.9838 56.2017 11.2272 56.6153 11.5488 56.9642C11.9123 57.3587 12.4115 57.636 13.4099 58.1907L38.0766 71.8944C39.0219 72.4196 39.4946 72.6822 39.9952 72.7851C40.4382 72.8763 40.8951 72.8763 41.3382 72.7851C41.8388 72.6822 42.3114 72.4196 43.2568 71.8944L67.9234 58.1907C68.9219 57.636 69.4211 57.3587 69.7846 56.9642C70.1062 56.6153 70.3495 56.2017 70.4984 55.7511C70.6667 55.2417 70.6667 54.6707 70.6667 53.5285Z" stroke="#5E2E93" stroke-width="5" stroke-linecap="round" stroke-linejoin="round"/>
</svg>
