<svg width="24" height="24" viewBox="0 0 24 24" fill="none" xmlns="http://www.w3.org/2000/svg">
<path d="M8.12602 14.3664C8.57006 16.0917 10.1362 17.3664 12 17.3664C13.8638 17.3664 15.4299 16.0917 15.874 14.3664M11.0177 3.13045L4.23539 8.40558C3.78202 8.7582 3.55534 8.93451 3.39203 9.15531C3.24737 9.3509 3.1396 9.57124 3.07403 9.80551C3 10.07 3 10.3572 3 10.9315V18.1664C3 19.2865 3 19.8466 3.21799 20.2744C3.40973 20.6507 3.71569 20.9567 4.09202 21.1485C4.51984 21.3664 5.07989 21.3664 6.2 21.3664H17.8C18.9201 21.3664 19.4802 21.3664 19.908 21.1485C20.2843 20.9567 20.5903 20.6507 20.782 20.2744C21 19.8466 21 19.2865 21 18.1664V10.9315C21 10.3572 21 10.07 20.926 9.80551C20.8604 9.57124 20.7526 9.3509 20.608 9.15531C20.4447 8.93451 20.218 8.7582 19.7646 8.40558L12.9823 3.13045C12.631 2.8572 12.4553 2.72057 12.2613 2.66806C12.0902 2.62172 11.9098 2.62172 11.7387 2.66806C11.5447 2.72057 11.369 2.8572 11.0177 3.13045Z" stroke="#1A181D" stroke-opacity="0.5" stroke-width="2" stroke-linecap="round" stroke-linejoin="round"/>
</svg>
