<svg width="24" height="24" viewBox="0 0 24 24" fill="none" xmlns="http://www.w3.org/2000/svg">
<path d="M9.39333 19.3711L9.97778 20.6856C10.1515 21.0768 10.4351 21.4093 10.794 21.6426C11.153 21.8759 11.5719 22.0001 12 22C12.4281 22.0001 12.847 21.8759 13.206 21.6426C13.5649 21.4093 13.8485 21.0768 14.0222 20.6856L14.6067 19.3711C14.8147 18.9047 15.1647 18.5159 15.6067 18.26C16.0515 18.0034 16.566 17.8941 17.0767 17.9478L18.5067 18.1C18.9323 18.145 19.3619 18.0656 19.7434 17.8713C20.1248 17.6771 20.4417 17.3763 20.6556 17.0056C20.8697 16.635 20.9718 16.2103 20.9493 15.7829C20.9268 15.3555 20.7808 14.9438 20.5289 14.5978L19.6822 13.4344C19.3807 13.0171 19.2197 12.5148 19.2222 12C19.2221 11.4866 19.3847 10.9864 19.6867 10.5711L20.5333 9.40778C20.7852 9.06175 20.9312 8.65007 20.9537 8.22267C20.9762 7.79528 20.8742 7.37054 20.66 7C20.4461 6.62923 20.1292 6.32849 19.7478 6.13423C19.3664 5.93997 18.9368 5.86053 18.5111 5.90556L17.0811 6.05778C16.5704 6.11141 16.0559 6.00212 15.6111 5.74556C15.1682 5.48825 14.8182 5.09736 14.6111 4.62889L14.0222 3.31444C13.8485 2.92317 13.5649 2.59072 13.206 2.3574C12.847 2.12408 12.4281 1.99993 12 2C11.5719 1.99993 11.153 2.12408 10.794 2.3574C10.4351 2.59072 10.1515 2.92317 9.97778 3.31444L9.39333 4.62889C9.18626 5.09736 8.83621 5.48825 8.39333 5.74556C7.94855 6.00212 7.434 6.11141 6.92333 6.05778L5.48889 5.90556C5.06322 5.86053 4.63363 5.93997 4.2522 6.13423C3.87078 6.32849 3.5539 6.62923 3.34 7C3.12582 7.37054 3.02378 7.79528 3.04627 8.22267C3.06875 8.65007 3.21479 9.06175 3.46667 9.40778L4.31333 10.5711C4.61527 10.9864 4.77787 11.4866 4.77778 12C4.77787 12.5134 4.61527 13.0137 4.31333 13.4289L3.46667 14.5922C3.21479 14.9382 3.06875 15.3499 3.04627 15.7773C3.02378 16.2047 3.12582 16.6295 3.34 17C3.55412 17.3706 3.87103 17.6712 4.2524 17.8654C4.63377 18.0596 5.06325 18.1392 5.48889 18.0944L6.91889 17.9422C7.42956 17.8886 7.9441 17.9979 8.38889 18.2544C8.83342 18.511 9.1851 18.902 9.39333 19.3711Z" stroke="#1A181D" stroke-opacity="0.5" stroke-width="2" stroke-linecap="round" stroke-linejoin="round"/>
<path d="M11.9982 15C13.6551 15 14.9982 13.6569 14.9982 12C14.9982 10.3431 13.6551 9 11.9982 9C10.3414 9 8.99821 10.3431 8.99821 12C8.99821 13.6569 10.3414 15 11.9982 15Z" stroke="#1A181D" stroke-opacity="0.5" stroke-width="2" stroke-linecap="round" stroke-linejoin="round"/>
</svg>
